<svg width="129" height="19" viewBox="0 0 129 19" fill="none" xmlns="http://www.w3.org/2000/svg">
<path d="M19.9807 14.4286H24.11C28.2735 14.4286 29.6443 13.0788 29.6443 10.9403C29.6443 9.08218 28.7533 8.1882 26.9371 7.94279C28.4963 7.6448 29.233 6.69823 29.233 5.01543C29.233 2.92947 28.0337 1.73749 23.9215 1.73749H19.9807V14.4286ZM21.9511 7.17151V3.50793H23.8872C26.3888 3.50793 27.1427 3.9111 27.1427 5.24331C27.1427 6.64564 26.1832 7.17151 23.9387 7.17151H21.9511ZM21.9511 12.6756V8.78419H24.1271C26.7143 8.78419 27.5539 9.25747 27.5539 10.7474C27.5539 12.0972 26.5773 12.6756 24.0929 12.6756H21.9511Z" fill="white" fill-opacity="0.4"/>
<path d="M31.5053 14.4286H33.4243V9.46782C33.4243 7.01375 34.4695 5.80424 36.6626 6.22494L36.8682 4.3318C34.8293 4.0338 33.8012 5.01543 33.4243 6.08471V4.40191H31.5053V14.4286Z" fill="white" fill-opacity="0.4"/>
<path d="M41.7427 14.6564C43.2676 14.6564 44.6555 13.8676 45.2037 12.5179V14.411H47.1227V4.40191H45.2037V6.36517C44.6383 4.98037 43.2676 4.20909 41.7255 4.20909C39.2925 4.20909 37.2365 5.962 37.2365 9.41524C37.2365 12.886 39.3097 14.6564 41.7427 14.6564ZM42.2224 12.9736C40.3891 12.9736 39.1555 11.6414 39.1555 9.41524C39.1555 7.20657 40.3891 5.87436 42.1882 5.87436C44.0044 5.87436 45.2551 7.2241 45.2551 9.41524C45.2551 11.6239 44.0215 12.9736 42.2224 12.9736Z" fill="white" fill-opacity="0.4"/>
<path d="M49.4758 14.4286H51.3948V9.38018C51.3948 7.17151 52.1487 5.92695 53.9992 5.92695C55.8154 5.92695 56.6378 6.96116 56.6378 9.1523V14.4286H58.5568V8.99454C58.5568 5.82177 57.306 4.22662 54.5989 4.22662C52.954 4.22662 51.8403 4.98037 51.3948 6.22494V4.40191H49.4758V14.4286Z" fill="white" fill-opacity="0.4"/>
<path d="M64.7831 14.6564C66.3081 14.6564 67.6959 13.8676 68.2442 12.5179V14.411H70.1632V1.1415H68.2442V6.36517C67.6959 4.98037 66.3081 4.20909 64.766 4.20909C62.333 4.20909 60.2769 5.962 60.2769 9.41524C60.2769 12.886 62.3501 14.6564 64.7831 14.6564ZM65.2629 12.9736C63.4296 12.9736 62.1959 11.6414 62.1959 9.41524C62.1959 7.20657 63.4296 5.87436 65.2286 5.87436C67.062 5.87436 68.2956 7.2241 68.2956 9.41524C68.2956 11.6239 67.0791 12.9736 65.2629 12.9736Z" fill="white" fill-opacity="0.4"/>
<path d="M73.4758 2.947C74.0926 2.947 74.6238 2.54383 74.6238 1.89525C74.6238 1.22915 74.0926 0.843506 73.4758 0.843506C72.8247 0.843506 72.345 1.22915 72.345 1.89525C72.345 2.54383 72.8247 2.947 73.4758 2.947ZM72.5163 14.4286H74.4182V4.40191H72.5163V14.4286Z" fill="white" fill-opacity="0.4"/>
<path d="M76.7161 14.4286H78.6351V9.38018C78.6351 7.17151 79.389 5.92695 81.2395 5.92695C83.0557 5.92695 83.8781 6.96116 83.8781 9.1523V14.4286H85.7971V8.99454C85.7971 5.82177 84.5463 4.22662 81.8392 4.22662C80.1943 4.22662 79.0806 4.98037 78.6351 6.22494V4.40191H76.7161V14.4286Z" fill="white" fill-opacity="0.4"/>
<path d="M92.4346 18.0571C95.6729 18.0571 97.4035 16.4444 97.4035 12.6932V4.40191H95.4845V6.31259C94.9362 4.80508 93.5483 4.22662 92.0063 4.22662C89.5733 4.22662 87.5172 5.89189 87.5172 9.20489C87.5172 12.5354 89.5733 14.2007 92.0234 14.2007C93.5483 14.2007 94.9362 13.6222 95.4845 12.1322V13.0087C95.4845 15.5154 94.3879 16.497 92.4518 16.497C91.1153 16.497 90.053 15.8309 89.5733 14.7967L87.7571 15.2524C88.4253 17.0404 90.1387 18.0571 92.4346 18.0571ZM92.486 12.6932C90.6527 12.6932 89.4362 11.396 89.4362 9.20489C89.4362 7.04881 90.6527 5.73413 92.4689 5.73413C94.3022 5.73413 95.5187 7.04881 95.5187 9.20489C95.5187 11.3785 94.3022 12.6932 92.486 12.6932Z" fill="white" fill-opacity="0.4"/>
<path d="M99.9279 14.4286H101.915V9.09971H107.193V7.38186H101.915V3.56052H107.501V1.73749H99.9279V14.4286Z" fill="white" fill-opacity="0.6"/>
<path d="M113.552 14.6564C116.054 14.6564 118.504 13.0613 118.504 9.41524C118.504 5.80424 116.036 4.20909 113.535 4.20909C111.033 4.20909 108.583 5.80424 108.583 9.41524C108.583 13.0613 111.033 14.6564 113.552 14.6564ZM113.552 12.9736C111.719 12.9736 110.502 11.6414 110.502 9.41524C110.502 7.20657 111.719 5.87436 113.535 5.87436C115.351 5.87436 116.585 7.2241 116.585 9.41524C116.585 11.6239 115.368 12.9736 113.552 12.9736Z" fill="white" fill-opacity="0.6"/>
<path d="M118.72 14.4286H120.964L123.894 10.4845L126.773 14.4286H129L125.008 9.1523L128.606 4.40191H126.31L123.877 7.74997L121.427 4.40191H119.165L122.746 9.1523L118.72 14.4286Z" fill="white" fill-opacity="0.6"/>
<path opacity="0.6" d="M13.5254 14.4709C13.5254 13.6232 13.3585 12.7838 13.0341 12.0006C12.7097 11.2175 12.2342 10.5059 11.6348 9.90646C11.0354 9.30705 10.3238 8.83157 9.54058 8.50717C8.75742 8.18277 7.91802 8.01581 7.07033 8.01581C6.22263 8.01581 5.38324 8.18277 4.60007 8.50717C3.8169 8.83157 3.1053 9.30705 2.50589 9.90646C1.90648 10.5059 1.431 11.2175 1.1066 12.0006C0.7822 12.7838 0.615234 13.6232 0.615234 14.4709L7.07033 14.4709H13.5254Z" fill="white" fill-opacity="0.4"/>
<path d="M0.00013193 3.34143C0.219531 4.16024 0.59806 4.92782 1.1141 5.60034C1.63015 6.27286 2.2736 6.83716 3.00773 7.261C3.74185 7.68485 4.55227 7.95995 5.39271 8.0706C6.23316 8.18124 7.08716 8.12527 7.90597 7.90587C8.72478 7.68647 9.49236 7.30794 10.1649 6.7919C10.8374 6.27585 11.4017 5.6324 11.8255 4.89828C12.2494 4.16415 12.5245 3.35373 12.6351 2.51329C12.7458 1.67285 12.6898 0.818839 12.4704 2.89765e-05L6.23527 1.67073L0.00013193 3.34143Z" fill="white" fill-opacity="0.4"/>
</svg>
