<svg width="91" height="16" viewBox="0 0 91 16" fill="none" xmlns="http://www.w3.org/2000/svg">
<ellipse cx="23.9473" cy="8" rx="7.98246" ry="8" fill="white" fill-opacity="0.4"/>
<ellipse cx="7.98246" cy="8" rx="7.98246" ry="8" fill="white" fill-opacity="0.2"/>
<path d="M51.8628 14.9131V1.35457H48.7976V9.5968L43.6372 1.35457H39.9124V14.9131H42.9582V6.00158L48.623 14.9131H51.8628Z" fill="white" fill-opacity="0.4"/>
<path d="M54.0275 12.2932C54.0275 13.804 55.2497 15.1809 57.3643 15.1809C58.6447 15.1809 59.5759 14.6454 60.0803 13.8422C60.0803 14.4924 60.1579 14.8366 60.1773 14.9131H62.8351C62.8158 14.8175 62.7187 14.1864 62.7187 13.4406V8.79361C62.7187 6.84302 61.5741 5.1219 58.4507 5.1219C55.6183 5.1219 54.3379 6.91951 54.2215 8.27728L56.7823 8.79361C56.8405 8.08604 57.4031 7.3976 58.4313 7.3976C59.3625 7.3976 59.8475 7.87568 59.8475 8.43027C59.8475 8.75536 59.6729 9.00397 59.1491 9.08047L56.8793 9.42469C55.2885 9.65417 54.0275 10.6103 54.0275 12.2932ZM58.0821 13.0773C57.2673 13.0773 56.9375 12.5992 56.9375 12.102C56.9375 11.4327 57.4031 11.1458 58.0239 11.0502L59.8475 10.7633V11.1841C59.8475 12.6566 58.9551 13.0773 58.0821 13.0773Z" fill="white" fill-opacity="0.4"/>
<path d="M74.4214 5.40875H71.3174L69.261 11.3179L67.03 5.40875H63.829L67.7866 14.9131H70.7548L74.4214 5.40875Z" fill="white" fill-opacity="0.4"/>
<path d="M78.872 14.9131V5.40875H75.9231V14.9131H78.872ZM75.6709 2.50198C75.6709 3.43903 76.4469 4.20397 77.3781 4.20397C78.3481 4.20397 79.1242 3.43903 79.1242 2.50198C79.1242 1.56493 78.3481 0.799988 77.3781 0.799988C76.4469 0.799988 75.6709 1.56493 75.6709 2.50198Z" fill="white" fill-opacity="0.4"/>
<path d="M85.8784 12.5227C84.7726 12.5227 83.7056 11.7386 83.7056 10.1514C83.7056 8.54501 84.7726 7.79919 85.8784 7.79919C87.0037 7.79919 88.0513 8.54501 88.0513 10.1514C88.0513 11.7578 87.0037 12.5227 85.8784 12.5227ZM85.8784 5.1219C83.0072 5.1219 80.7568 7.20636 80.7568 10.1514C80.7568 13.0964 83.0072 15.2 85.8784 15.2C88.7691 15.2 91.0001 13.0964 91.0001 10.1514C91.0001 7.20636 88.7691 5.1219 85.8784 5.1219Z" fill="white" fill-opacity="0.4"/>
</svg>
