<svg width="93" height="28" viewBox="0 0 93 28" fill="none" xmlns="http://www.w3.org/2000/svg">
<path d="M29.1225 14.5086V12.9033H32.1652C32.8123 12.9033 33.3474 12.7788 33.7705 12.5299C34.1936 12.2686 34.5109 11.9201 34.7225 11.4846C34.9465 11.049 35.0585 10.5637 35.0585 10.0286C35.0585 9.48103 34.9465 8.98947 34.7225 8.55392C34.5109 8.11836 34.1936 7.77614 33.7705 7.52725C33.3474 7.27836 32.8123 7.15392 32.1652 7.15392H29.1225V5.54858H31.8292C32.9492 5.54858 33.8825 5.72903 34.6292 6.08992C35.3883 6.43836 35.9607 6.93614 36.3465 7.58325C36.7323 8.23036 36.9252 8.9957 36.9252 9.87925V10.1779C36.9252 11.049 36.7323 11.8144 36.3465 12.4739C35.9607 13.121 35.3883 13.625 34.6292 13.9859C33.8825 14.3344 32.9492 14.5086 31.8292 14.5086H29.1225ZM27.6665 19.2499V5.54858H29.4958V19.2499H27.6665Z" fill="white" fill-opacity="0.4"/>
<path d="M45.2652 19.2499V16.2633H44.9666V12.8099C44.9666 12.1255 44.7861 11.609 44.4252 11.2606C44.0768 10.9121 43.5603 10.7379 42.8759 10.7379C42.4901 10.7379 42.0919 10.7441 41.6812 10.7566C41.2706 10.769 40.8786 10.7815 40.5052 10.7939C40.1319 10.8064 39.8083 10.825 39.5346 10.8499V9.28192C39.8083 9.25703 40.0946 9.23836 40.3932 9.22592C40.7043 9.20103 41.0217 9.18858 41.3452 9.18858C41.6688 9.17614 41.9799 9.16992 42.2786 9.16992C43.299 9.16992 44.1328 9.29436 44.7799 9.54325C45.427 9.7797 45.9061 10.1717 46.2172 10.7193C46.5283 11.2668 46.6839 12.0073 46.6839 12.9406V19.2499H45.2652ZM41.9986 19.5113C41.2519 19.5113 40.6048 19.3868 40.0572 19.1379C39.5221 18.8766 39.1052 18.5033 38.8066 18.0179C38.5203 17.5326 38.3772 16.9477 38.3772 16.2633C38.3772 15.5539 38.5328 14.9628 38.8439 14.4899C39.1675 14.017 39.6341 13.6624 40.2439 13.4259C40.8537 13.177 41.5879 13.0526 42.4466 13.0526H45.1532V14.3966H42.3719C41.6501 14.3966 41.0963 14.5708 40.7106 14.9193C40.3248 15.2677 40.1319 15.7157 40.1319 16.2633C40.1319 16.8108 40.3248 17.2526 40.7106 17.5886C41.0963 17.9246 41.6501 18.0926 42.3719 18.0926C42.795 18.0926 43.1995 18.0179 43.5852 17.8686C43.971 17.7068 44.2883 17.4455 44.5372 17.0846C44.7986 16.7113 44.9417 16.201 44.9666 15.5539L45.4519 16.2633C45.3897 16.9726 45.2155 17.5699 44.9292 18.0553C44.6555 18.5281 44.2697 18.889 43.7719 19.1379C43.2866 19.3868 42.6955 19.5113 41.9986 19.5113Z" fill="white" fill-opacity="0.4"/>
<path d="M49.2644 23.1326V21.5273H50.7018C51.1249 21.5273 51.4795 21.4713 51.7658 21.3593C52.0644 21.2597 52.3071 21.0855 52.4938 20.8366C52.6929 20.5877 52.8546 20.2579 52.9791 19.8473L56.1151 9.28192H57.8698L54.5471 20.3139C54.348 20.9735 54.068 21.5086 53.7071 21.9193C53.3462 22.3424 52.9044 22.6473 52.3818 22.8339C51.8715 23.033 51.2742 23.1326 50.5898 23.1326H49.2644ZM52.3071 19.0259V17.5326H54.4724V19.0259H52.3071ZM52.1204 19.0259L48.5551 9.28192H50.3844L53.8004 19.0259H52.1204Z" fill="white" fill-opacity="0.4"/>
<path d="M64.1021 19.5859C63.3928 19.5859 62.7394 19.4553 62.1421 19.1939C61.5448 18.9326 61.0283 18.5655 60.5928 18.0926C60.1572 17.6197 59.8212 17.0721 59.5848 16.4499C59.3483 15.8153 59.2301 15.1308 59.2301 14.3966V14.0046C59.2301 13.2828 59.3421 12.6046 59.5661 11.9699C59.8025 11.3353 60.1261 10.7815 60.5368 10.3086C60.9599 9.8357 61.4639 9.46858 62.0488 9.20725C62.6461 8.93347 63.3056 8.79658 64.0274 8.79658C64.8239 8.79658 65.5208 8.97081 66.1181 9.31925C66.7279 9.65525 67.2132 10.1655 67.5741 10.8499C67.935 11.5344 68.1341 12.393 68.1714 13.4259L67.4061 12.5299V5.62325H70.0008V19.2499H67.9474V14.9379H68.3954C68.3581 15.9708 68.1465 16.8357 67.7608 17.5326C67.375 18.217 66.8648 18.7335 66.2301 19.0819C65.6079 19.4179 64.8985 19.5859 64.1021 19.5859ZM64.6808 17.4019C65.191 17.4019 65.6576 17.2899 66.0808 17.0659C66.5039 16.8295 66.8399 16.4935 67.0888 16.0579C67.3501 15.6099 67.4808 15.0873 67.4808 14.4899V13.7433C67.4808 13.1459 67.3501 12.6481 67.0888 12.2499C66.8274 11.8393 66.4852 11.5281 66.0621 11.3166C65.639 11.0926 65.1785 10.9806 64.6808 10.9806C64.1208 10.9806 63.623 11.1175 63.1874 11.3913C62.7643 11.6526 62.4283 12.0259 62.1794 12.5113C61.943 12.9966 61.8248 13.5628 61.8248 14.2099C61.8248 14.857 61.9492 15.4233 62.1981 15.9086C62.447 16.3815 62.783 16.7486 63.2061 17.0099C63.6416 17.2713 64.1332 17.4019 64.6808 17.4019Z" fill="white" fill-opacity="0.4"/>
<path d="M79.0955 19.2499V16.2446H78.6662V12.9033C78.6662 12.3184 78.5231 11.8828 78.2368 11.5966C77.9506 11.3104 77.5088 11.1673 76.9115 11.1673C76.6004 11.1673 76.2271 11.1735 75.7915 11.1859C75.3559 11.1984 74.9142 11.217 74.4662 11.2419C74.0306 11.2544 73.6386 11.273 73.2902 11.2979V9.09525C73.5764 9.07036 73.8999 9.04547 74.2608 9.02058C74.6217 8.9957 74.9888 8.98325 75.3622 8.98325C75.7479 8.97081 76.1088 8.96458 76.4448 8.96458C77.4902 8.96458 78.3551 9.10147 79.0395 9.37525C79.7364 9.64903 80.2591 10.0784 80.6075 10.6633C80.9684 11.2481 81.1488 12.0135 81.1488 12.9593V19.2499H79.0955ZM75.8288 19.5113C75.0946 19.5113 74.4475 19.3806 73.8875 19.1193C73.3399 18.8579 72.9106 18.4846 72.5995 17.9993C72.3008 17.5139 72.1515 16.929 72.1515 16.2446C72.1515 15.4979 72.3319 14.8881 72.6928 14.4153C73.0662 13.9424 73.5826 13.5877 74.2422 13.3513C74.9142 13.1148 75.6982 12.9966 76.5942 12.9966H78.9462V14.5459H76.5568C75.9595 14.5459 75.4991 14.6953 75.1755 14.9939C74.8644 15.2801 74.7088 15.6535 74.7088 16.1139C74.7088 16.5744 74.8644 16.9477 75.1755 17.2339C75.4991 17.5201 75.9595 17.6633 76.5568 17.6633C76.9177 17.6633 77.2475 17.601 77.5462 17.4766C77.8573 17.3397 78.1124 17.1157 78.3115 16.8046C78.5231 16.481 78.6413 16.0455 78.6662 15.4979L79.3008 16.2259C79.2386 16.9353 79.0644 17.5326 78.7782 18.0179C78.5044 18.5033 78.1186 18.8766 77.6208 19.1379C77.1355 19.3868 76.5382 19.5113 75.8288 19.5113Z" fill="white" fill-opacity="0.4"/>
<path d="M83.5019 23.2446V21.0233H85.4059C85.7667 21.0233 86.0654 20.9735 86.3019 20.8739C86.5507 20.7868 86.7561 20.6375 86.9179 20.4259C87.0796 20.2268 87.2041 19.9468 87.2912 19.5859L90.0165 9.11392H92.4992L89.4939 20.1459C89.2947 20.905 89.0147 21.5086 88.6539 21.9566C88.293 22.417 87.8263 22.7468 87.2539 22.9459C86.6939 23.145 85.997 23.2446 85.1632 23.2446H83.5019ZM86.6565 19.0259V16.9726H88.8219V19.0259H86.6565ZM85.7792 19.0259L82.4939 9.11392H85.1072L88.2245 19.0259H85.7792Z" fill="white" fill-opacity="0.4"/>
<path d="M0 0H18.6667V18.6667H9.33333L4.66667 14L0 9.33333V0Z" fill="white" fill-opacity="0.4"/>
<path opacity="0.3" d="M9.33325 18.6667L4.66659 14L-8.02464e-05 9.33335L9.33325 9.33335L9.33325 18.6667Z" fill="#1C1D21"/>
<rect y="18.6667" width="9.33333" height="9.33333" fill="white" fill-opacity="0.4"/>
</svg>
