<svg width="136" height="16" viewBox="0 0 136 16" fill="none" xmlns="http://www.w3.org/2000/svg">
<path fill-rule="evenodd" clip-rule="evenodd" d="M23.3311 12.2816H37.6331C38.2808 12.2816 38.8053 11.7644 38.8053 11.1315V4.86907C38.8053 4.23675 38.2808 3.71899 37.6331 3.71899H23.3311C22.6835 3.71899 22.1589 4.23675 22.1589 4.86907V11.1315C22.1596 11.7644 22.6835 12.2816 23.3311 12.2816ZM24.2404 5.38043H36.7893C37.0043 5.38043 37.1798 5.55323 37.1798 5.76379V10.2374C37.1798 10.448 37.0043 10.6208 36.7893 10.6208H24.2404C24.0254 10.6208 23.8499 10.448 23.8499 10.2374V5.76379C23.8499 5.55259 24.0254 5.38043 24.2404 5.38043Z" fill="white" fill-opacity="0.4"/>
<path fill-rule="evenodd" clip-rule="evenodd" d="M3.23804 12.2817H4.92832V10.2375H18.6481C19.3275 10.2375 19.8838 9.69096 19.8838 9.02344V4.9332C19.8838 4.26568 19.3275 3.71912 18.6481 3.71912H4.92832H4.47305H3.23804V4.9332V9.02344V12.2817ZM4.92832 8.57544V5.38056H5.38295H16.4365H17.6722C17.9578 5.38056 18.1922 5.61032 18.1922 5.89192V8.06472C18.1922 8.34568 17.9584 8.57608 17.6722 8.57608H16.4365H5.3836H4.92832V8.57544Z" fill="white" fill-opacity="0.4"/>
<path fill-rule="evenodd" clip-rule="evenodd" d="M41.0156 12.2816H42.7066V10.2374H54.8935L55.9614 12.2816H57.789L56.7042 10.2061C57.2508 10.0813 57.6607 9.59678 57.6607 9.0227V4.93246C57.6607 4.26494 57.1051 3.71838 56.4257 3.71838H42.7066H42.2513H41.0156V4.93246V9.0227V12.2816ZM42.7066 8.57534V5.38046H43.1612H54.2147H55.4498C55.736 5.38046 55.9704 5.61022 55.9704 5.89182V8.06462C55.9704 8.34558 55.7367 8.57598 55.4498 8.57598H54.2147H43.1612H42.7066V8.57534Z" fill="white" fill-opacity="0.4"/>
<path fill-rule="evenodd" clip-rule="evenodd" d="M97.5851 12.2816H99.276V8.8307H111.695V12.2816H113.386V3.71838H111.695V7.1699H99.276V3.71838H97.5851V12.2816Z" fill="white" fill-opacity="0.4"/>
<path fill-rule="evenodd" clip-rule="evenodd" d="M80.5508 12.2816H95.0497V10.5984C95.0089 10.6125 94.9649 10.6201 94.9195 10.6201H81.4601C81.2464 10.6201 81.0696 10.4473 81.0696 10.2368V5.76318C81.0696 5.55262 81.2457 5.37982 81.4601 5.37982H94.9195C94.9649 5.37982 95.0089 5.38814 95.0497 5.40222V3.71838H80.5508C79.9038 3.71838 79.3793 4.23614 79.3793 4.86846V11.1309C79.3793 11.7645 79.9038 12.2816 80.5508 12.2816Z" fill="white" fill-opacity="0.4"/>
<path fill-rule="evenodd" clip-rule="evenodd" d="M115.987 12.2816H116.963H117.678H132.762V10.6201H117.678V8.8307H132.762V7.1699H117.678V5.38046H132.762V3.71838H117.678H116.963H115.987V12.2816Z" fill="white" fill-opacity="0.4"/>
<path fill-rule="evenodd" clip-rule="evenodd" d="M62.3437 6.14718V5.76318C62.3437 5.55262 62.5192 5.37982 62.7335 5.37982H76.1937C76.239 5.37982 76.283 5.38814 76.3232 5.40222V3.71838H61.8243C61.1767 3.71838 60.6521 4.23614 60.6521 4.86846V5.37982V6.14654V7.67998C60.6521 8.3123 61.1767 8.83006 61.8243 8.83006H63.0587V8.85182C63.0995 8.83838 63.1428 8.83006 63.1882 8.83006H74.2417C74.4567 8.83006 74.6322 9.00286 74.6322 9.21406V9.85278V10.2368C74.6322 10.4473 74.4567 10.6201 74.2417 10.6201H60.7823C60.7369 10.6201 60.6929 10.6125 60.6521 10.5984V12.2816H75.151C75.7986 12.2816 76.3232 11.7638 76.3232 11.1315V10.6201V9.85342V8.31998C76.3232 7.68702 75.7986 7.16926 75.151 7.16926H73.9179V7.1475C73.8765 7.16158 73.8331 7.16926 73.7871 7.16926H62.7329C62.5185 7.16926 62.343 6.99646 62.343 6.78526V6.14718H62.3437Z" fill="white" fill-opacity="0.4"/>
</svg>
