<svg width="130" height="24" viewBox="0 0 130 24" fill="none" xmlns="http://www.w3.org/2000/svg">
<path d="M33.3569 18.1097V14.7174H34.947C37.8292 14.7174 39.9328 13.2418 39.9328 10.4431V10.4092C39.9328 7.78021 38.0445 6.23673 35.1127 6.23673H30.1434V18.1097H33.3569ZM34.8808 12.1393H33.3569V9.00143H34.8642C36.0237 9.00143 36.7194 9.54419 36.7194 10.5619V10.5958C36.7194 11.5287 36.0237 12.1393 34.8808 12.1393ZM47.3369 18.1097V9.12016H50.8154V6.23673H40.6451V9.12016H44.1235V18.1097H47.3369ZM58.0539 18.3471C61.6317 18.3471 64.3151 15.5824 64.3151 12.1732V12.1393C64.3151 8.73005 61.6649 5.99927 58.087 5.99927C54.5092 5.99927 51.8258 8.76397 51.8258 12.1732V12.2071C51.8258 15.6164 54.476 18.3471 58.0539 18.3471ZM58.087 15.3789C56.3312 15.3789 55.122 13.8863 55.122 12.1732V12.1393C55.122 10.4262 56.2981 8.96751 58.0539 8.96751C59.8262 8.96751 61.0354 10.4601 61.0354 12.1732V12.2071C61.0354 13.9202 59.8594 15.3789 58.087 15.3789Z" fill="white" fill-opacity="0.4"/>
<path d="M72.3404 18.3134C74.3943 18.3134 76.0342 17.4653 77.1771 16.4646V11.4779H72.241V13.2928H75.206V15.5147C74.4937 16.0575 73.4999 16.4137 72.4066 16.4137C70.038 16.4137 68.4644 14.6158 68.4644 12.1733V12.1394C68.4644 9.8666 70.0877 7.94996 72.2244 7.94996C73.6986 7.94996 74.5765 8.44184 75.471 9.22207L76.763 7.64466C75.5704 6.61001 74.3281 6.03333 72.3073 6.03333C68.8122 6.03333 66.3276 8.84892 66.3276 12.1733V12.2073C66.3276 15.6674 68.7129 18.3134 72.3404 18.3134ZM88.5069 18.1098V16.2441H81.8647V13.0553H87.6787V11.1896H81.8647V8.10261H88.4241V6.23686H79.8273V18.1098H88.5069ZM92.9295 18.1098V9.66306L99.3232 18.1098H101.029V6.23686H99.0251V14.4462L92.8136 6.23686H90.9253V18.1098H92.9295ZM106.164 18.1098V6.23686H104.127V18.1098H106.164ZM114.016 18.2964C117.047 18.2964 119.001 16.5155 119.001 12.9705V6.23686H116.964V13.0723C116.964 15.2603 115.854 16.3798 114.049 16.3798C112.227 16.3798 111.117 15.1925 111.117 12.9875V6.23686H109.079V13.0723C109.079 16.5155 111.001 18.2964 114.016 18.2964ZM125.859 18.2794C128.294 18.2794 130 16.9565 130 14.7345V14.7006C130 12.7331 128.724 11.8341 126.273 11.2235C124.053 10.6807 123.523 10.2737 123.523 9.35776V9.32383C123.523 8.54361 124.219 7.91604 125.412 7.91604C126.472 7.91604 127.515 8.34007 128.559 9.13726L129.652 7.55985C128.476 6.59305 127.134 6.06725 125.445 6.06725C123.142 6.06725 121.486 7.47504 121.486 9.51041V9.54433C121.486 11.7324 122.877 12.4787 125.345 13.0893C127.499 13.5981 127.963 14.0561 127.963 14.9041V14.9381C127.963 15.837 127.167 16.4307 125.909 16.4307C124.467 16.4307 123.358 15.8709 122.248 14.8872L121.022 16.3798C122.414 17.6519 124.087 18.2794 125.859 18.2794Z" fill="white" fill-opacity="0.4"/>
<mask id="mask0_12_1828" style="mask-type:alpha" maskUnits="userSpaceOnUse" x="0" y="0" width="22" height="24">
<path d="M1.38333 0L20.3279 0C20.8089 0 20.9834 0.0512849 21.1592 0.147587C21.3351 0.243889 21.4731 0.385209 21.5671 0.565279C21.6612 0.745348 21.7113 0.923959 21.7113 1.41651V22.5835C21.7113 23.076 21.6612 23.2547 21.5671 23.4347C21.4731 23.6148 21.3351 23.7561 21.1592 23.8524C20.9834 23.9487 20.8089 24 20.3279 24H1.38333C0.902316 24 0.727888 23.9487 0.552037 23.8524C0.376186 23.7561 0.238176 23.6148 0.14413 23.4347C0.0500835 23.2547 0 23.076 0 22.5835L0 1.41651C0 0.923959 0.0500835 0.745348 0.14413 0.565279C0.238176 0.385209 0.376186 0.243889 0.552037 0.147587C0.727888 0.0512849 0.902316 0 1.38333 0Z" fill="white"/>
</mask>
<g mask="url(#mask0_12_1828)">
<path fill-rule="evenodd" clip-rule="evenodd" d="M0 23.9989C0 23.9989 2.65724 17.1423 10.0905 17.1423V0H0.863232C0.386482 0 0 0.39577 0 0.883978V23.9989Z" fill="white" fill-opacity="0.4"/>
<path opacity="0.6" fill-rule="evenodd" clip-rule="evenodd" d="M10.0905 22.6729V17.1423C2.65724 17.1423 0 23.9989 0 23.9989H8.79569C9.51081 23.9989 10.0905 23.4053 10.0905 22.6729Z" fill="white" fill-opacity="0.4"/>
<path opacity="0.8" fill-rule="evenodd" clip-rule="evenodd" d="M20.9832 4.86807C20.5254 3.81702 19.873 2.93083 19.0251 2.21149C18.1766 1.49127 17.1502 0.94232 15.9449 0.565304C14.7398 0.188508 13.4001 0 11.9274 0H10.0905V17.1423H11.5927C13.0427 17.1423 14.3878 16.9593 15.6264 16.5934C16.8657 16.2283 17.931 15.6793 18.8238 14.9483C19.7164 14.2164 20.4143 13.3138 20.9163 12.2393C21.4189 11.1655 21.6696 9.91978 21.6696 8.50276V8.43337C21.6696 7.10807 21.4409 5.92 20.9832 4.86807Z" fill="white" fill-opacity="0.4"/>
</g>
</svg>
