<svg width="103" height="36" viewBox="0 0 103 36" fill="none" xmlns="http://www.w3.org/2000/svg">
<g clip-path="url(#clip0_12_1755)">
<path d="M5.92593 25.7107C6.3612 26.8737 6.96382 27.8681 7.7339 28.6939C8.50397 29.5198 9.41629 30.1518 10.4708 30.59C11.5255 31.0282 12.6722 31.2473 13.911 31.2473C15.1163 31.2473 16.2462 31.0197 17.3009 30.5646C18.3555 30.1095 19.2762 29.4691 20.0629 28.6433C20.8497 27.8174 21.4607 26.8315 21.896 25.6855C22.3313 24.5394 22.5488 23.2586 22.5488 21.8428V0H27.8219V35.3933H22.5991V32.1067C21.4273 33.3538 20.0461 34.3145 18.4559 34.9888C16.8655 35.6629 15.1498 36 13.3083 36C11.4334 36 9.68409 35.6713 8.06026 35.014C6.43654 34.3567 5.03029 33.4214 3.84183 32.2079C2.65338 30.9943 1.71584 29.5367 1.02955 27.8343C0.343146 26.1321 0 24.2361 0 22.1461V0H5.27309V21.8428C5.27309 23.2586 5.49067 24.5478 5.92593 25.7107Z" fill="white" fill-opacity="0.4"/>
<path d="M36.9113 0V12.8932C38.0831 11.7135 39.4391 10.7782 40.9791 10.0871C42.5192 9.39602 44.1933 9.05054 46.0011 9.05054C47.8761 9.05054 49.6336 9.40441 51.2742 10.1123C52.9147 10.8201 54.3375 11.7808 55.5428 12.9944C56.7482 14.2079 57.7024 15.6404 58.4055 17.2921C59.1085 18.9439 59.46 20.6967 59.46 22.5506C59.46 24.4044 59.1085 26.1489 58.4055 27.7836C57.7024 29.4185 56.7482 30.8427 55.5428 32.056C54.3375 33.2696 52.9147 34.2303 51.2742 34.9382C49.6336 35.646 47.876 35.9999 46.0011 35.9999C44.1931 35.9999 42.5109 35.6544 40.954 34.9633C39.3972 34.2724 38.0328 33.3369 36.8611 32.1572V35.3932H31.8391V0H36.9113ZM37.4888 26.0393C37.9407 27.1181 38.5686 28.0619 39.3721 28.8709C40.1756 29.6799 41.1131 30.3204 42.1844 30.7923C43.2558 31.2642 44.4108 31.5001 45.6496 31.5001C46.855 31.5001 47.9932 31.2642 49.0645 30.7923C50.1359 30.3204 51.0648 29.68 51.8518 28.8709C52.6386 28.062 53.2663 27.1181 53.735 26.0393C54.2037 24.9607 54.4381 23.7978 54.4381 22.5506C54.4381 21.3034 54.2037 20.132 53.735 19.0365C53.2663 17.941 52.6386 16.9888 51.8518 16.1798C51.0649 15.3709 50.136 14.7388 49.0645 14.2838C47.9931 13.8288 46.8549 13.6011 45.6496 13.6011C44.4444 13.6011 43.3061 13.8287 42.2347 14.2838C41.1634 14.7389 40.226 15.3709 39.4223 16.1798C38.6189 16.9888 37.9827 17.941 37.514 19.0365C37.0453 20.132 36.8109 21.3034 36.8109 22.5506C36.8108 23.7978 37.0369 24.9607 37.4888 26.0393Z" fill="white" fill-opacity="0.4"/>
<path d="M62.3221 17.3428C62.9916 15.7248 63.9125 14.3007 65.0841 13.0703C66.2558 11.84 67.6454 10.8709 69.2525 10.163C70.8595 9.45519 72.6005 9.10132 74.4753 9.10132C76.3167 9.10132 78.0242 9.43841 79.5978 10.1125C81.1713 10.7867 82.5272 11.7221 83.6656 12.9187C84.8039 14.1153 85.6912 15.5311 86.3272 17.1659C86.9634 18.8008 87.2814 20.5788 87.2814 22.5003V24.1688H66.4402C66.6076 25.2138 66.9424 26.1828 67.4446 27.076C67.9469 27.9692 68.5745 28.7445 69.3278 29.4018C70.0811 30.0592 70.9348 30.5733 71.8891 30.944C72.8433 31.3147 73.8559 31.5002 74.9274 31.5002C77.9741 31.5002 80.4349 30.2361 82.3098 27.708L85.9758 30.4383C84.7036 32.1574 83.1301 33.5058 81.2552 34.4832C79.3803 35.4607 77.271 35.9495 74.9275 35.9495C73.0191 35.9495 71.2363 35.6123 69.579 34.9383C67.9218 34.2642 66.4822 33.3203 65.2602 32.1067C64.0381 30.8932 63.0756 29.4691 62.3725 27.8343C61.6695 26.1995 61.3179 24.4213 61.3179 22.5C61.3176 20.6799 61.6526 18.9607 62.3221 17.3428ZM69.378 15.3455C67.9551 16.5421 67.0093 18.1349 66.5406 20.1236H82.1591C81.7238 18.1349 80.7947 16.5421 79.3718 15.3455C77.9489 14.149 76.2833 13.5506 74.375 13.5506C72.4666 13.5506 70.8009 14.149 69.378 15.3455Z" fill="white" fill-opacity="0.4"/>
<path d="M96.7727 15.9269C95.7014 17.1067 95.1657 18.7078 95.1657 20.7303V35.3934H90.0934V9.60681H95.1153V12.7922C95.7515 11.7473 96.5802 10.9214 97.6013 10.3147C98.6224 9.70783 99.836 9.40442 101.242 9.40442H103V14.1573H100.891C99.2168 14.1574 97.8441 14.7472 96.7727 15.9269Z" fill="white" fill-opacity="0.4"/>
</g>
<defs>
<clipPath id="clip0_12_1755">
<rect width="103" height="36" fill="white"/>
</clipPath>
</defs>
</svg>
