<svg width="110" height="28" viewBox="0 0 110 28" fill="none" xmlns="http://www.w3.org/2000/svg">
<g clip-path="url(#clip0_13_180)">
<path d="M28.0584 28H9.35279C4.18257 28 0 23.8224 0 18.6666C0 13.5109 4.18257 9.33331 9.35279 9.33331C14.523 9.33331 18.7056 13.5072 18.7056 18.6666C18.7056 23.8261 22.8882 28 28.0584 28Z" fill="white" fill-opacity="0.2"/>
<path d="M37.4112 18.6667C37.4112 23.8224 33.2286 28 28.0584 28C22.8881 28 18.7056 23.8224 18.7056 18.6667C18.7056 13.5109 14.523 9.33333 9.35278 9.33333C9.35278 4.17387 13.5354 0 18.7056 0C23.8758 0 28.0584 4.17387 28.0584 9.33333C33.2286 9.33333 37.4112 13.5072 37.4112 18.6667Z" fill="white" fill-opacity="0.4"/>
</g>
<path d="M44.1117 24.0913V21.9556L51.3443 12.3248H44.4122V9.7861H55.0707V11.9218L47.8382 21.5526H55.5115V24.0913H44.1117Z" fill="white" fill-opacity="0.4"/>
<path d="M62.4337 24.3935C61.6456 24.3935 60.9177 24.2592 60.2499 23.9905C59.5954 23.7085 59.0278 23.3189 58.5469 22.8219C58.0661 22.3115 57.6921 21.7138 57.425 21.0288C57.1578 20.3303 57.0243 19.5714 57.0243 18.752C57.0243 17.9595 57.1578 17.2208 57.425 16.5357C57.6921 15.8507 58.0594 15.2597 58.5269 14.7627C59.0077 14.2523 59.5687 13.856 60.2098 13.5739C60.8509 13.2919 61.5455 13.1508 62.2934 13.1508C63.0681 13.1508 63.7693 13.2852 64.3971 13.5538C65.0382 13.8224 65.5858 14.2053 66.0399 14.7022C66.4941 15.1992 66.8413 15.7902 67.0817 16.4753C67.3355 17.1603 67.4624 17.9259 67.4624 18.7722V19.4774H59.8692C59.9894 20.2698 60.2766 20.8944 60.7307 21.3511C61.1848 21.7944 61.7592 22.016 62.4537 22.016C62.9345 22.016 63.3686 21.9018 63.756 21.6735C64.1567 21.4452 64.4839 21.1161 64.7377 20.6862L67.242 21.4922C67.0016 22.0966 66.641 22.6138 66.1601 23.0436C65.6793 23.4734 65.1183 23.8092 64.4772 24.051C63.8361 24.2793 63.1549 24.3935 62.4337 24.3935ZM62.2934 15.3268C61.679 15.3268 61.1581 15.5283 60.7307 15.9313C60.3167 16.3342 60.0428 16.885 59.9093 17.5834H64.5774C64.4705 16.885 64.2101 16.3342 63.796 15.9313C63.3953 15.5283 62.8945 15.3268 62.2934 15.3268Z" fill="white" fill-opacity="0.4"/>
<path d="M69.2032 28V13.4531H71.7877L71.8679 15.0045C72.2285 14.4269 72.7093 13.9769 73.3104 13.6545C73.9114 13.3187 74.5726 13.1508 75.2938 13.1508C75.9884 13.1508 76.6295 13.2919 77.2172 13.5739C77.8048 13.856 78.3191 14.2523 78.7598 14.7627C79.2006 15.2597 79.5412 15.844 79.7816 16.5156C80.0354 17.1872 80.1623 17.9192 80.1623 18.7117C80.1623 19.5177 80.0354 20.2631 79.7816 20.9482C79.5278 21.6332 79.1739 22.2377 78.7198 22.7615C78.2656 23.2719 77.7314 23.6749 77.117 23.9704C76.5026 24.2525 75.8414 24.3935 75.1335 24.3935C74.4791 24.3935 73.8847 24.2659 73.3504 24.0107C72.8162 23.742 72.3687 23.3727 72.0081 22.9025V28H69.2032ZM74.6327 21.8548C75.1402 21.8548 75.5943 21.7205 75.995 21.4519C76.3957 21.1832 76.7096 20.8206 76.9367 20.3639C77.1771 19.8938 77.2973 19.3632 77.2973 18.7722C77.2973 18.1812 77.1771 17.6573 76.9367 17.2006C76.7096 16.7305 76.3957 16.3611 75.995 16.0925C75.5943 15.8238 75.1402 15.6895 74.6327 15.6895C74.1251 15.6895 73.671 15.8238 73.2703 16.0925C72.8696 16.3611 72.549 16.7305 72.3086 17.2006C72.0816 17.6573 71.968 18.1812 71.968 18.7722C71.968 19.3632 72.0816 19.8938 72.3086 20.3639C72.549 20.8206 72.8696 21.1832 73.2703 21.4519C73.671 21.7205 74.1251 21.8548 74.6327 21.8548Z" fill="white" fill-opacity="0.4"/>
<path d="M81.9989 28V13.4531H84.5834L84.6635 15.0045C85.0242 14.4269 85.505 13.9769 86.106 13.6545C86.7071 13.3187 87.3682 13.1508 88.0895 13.1508C88.784 13.1508 89.4251 13.2919 90.0128 13.5739C90.6005 13.856 91.1147 14.2523 91.5555 14.7627C91.9963 15.2597 92.3368 15.844 92.5773 16.5156C92.831 17.1872 92.9579 17.9192 92.9579 18.7117C92.9579 19.5177 92.831 20.2631 92.5773 20.9482C92.3235 21.6332 91.9695 22.2377 91.5154 22.7615C91.0613 23.2719 90.527 23.6749 89.9126 23.9704C89.2982 24.2525 88.6371 24.3935 87.9292 24.3935C87.2747 24.3935 86.6804 24.2659 86.1461 24.0107C85.6118 23.742 85.1644 23.3727 84.8038 22.9025V28H81.9989ZM87.4283 21.8548C87.9359 21.8548 88.39 21.7205 88.7907 21.4519C89.1914 21.1832 89.5053 20.8206 89.7323 20.3639C89.9727 19.8938 90.0929 19.3632 90.0929 18.7722C90.0929 18.1812 89.9727 17.6573 89.7323 17.2006C89.5053 16.7305 89.1914 16.3611 88.7907 16.0925C88.39 15.8238 87.9359 15.6895 87.4283 15.6895C86.9208 15.6895 86.4667 15.8238 86.066 16.0925C85.6653 16.3611 85.3447 16.7305 85.1043 17.2006C84.8772 17.6573 84.7637 18.1812 84.7637 18.7722C84.7637 19.3632 84.8772 19.8938 85.1043 20.3639C85.3447 20.8206 85.6653 21.1832 86.066 21.4519C86.4667 21.7205 86.9208 21.8548 87.4283 21.8548Z" fill="white" fill-opacity="0.4"/>
<path d="M97.7998 10.5719C97.7998 10.8808 97.7263 11.1562 97.5794 11.3979C97.4458 11.6397 97.2522 11.8345 96.9984 11.9822C96.758 12.1166 96.4908 12.1837 96.197 12.1837C95.9031 12.1837 95.6293 12.1166 95.3756 11.9822C95.1351 11.8345 94.9415 11.6397 94.7946 11.3979C94.661 11.1562 94.5942 10.8808 94.5942 10.5719C94.5942 10.2629 94.661 9.98758 94.7946 9.7458C94.9415 9.50402 95.1351 9.31597 95.3756 9.18165C95.6293 9.0339 95.9031 8.96002 96.197 8.96002C96.4908 8.96002 96.758 9.0339 96.9984 9.18165C97.2522 9.31597 97.4458 9.50402 97.5794 9.7458C97.7263 9.98758 97.7998 10.2629 97.7998 10.5719ZM94.7946 24.0913V13.4531H97.5994V24.0913H94.7946Z" fill="white" fill-opacity="0.4"/>
<path d="M98.9608 24.0913L102.928 18.4699L99.4016 13.4531H102.567L104.51 16.6566L106.494 13.4531H109.559L106.053 18.4901L110 24.0913H106.694L104.47 20.4243L102.186 24.0913H98.9608Z" fill="white" fill-opacity="0.4"/>
<defs>
<clipPath id="clip0_13_180">
<rect width="37.4112" height="28" fill="white"/>
</clipPath>
</defs>
</svg>
