<svg width="18" height="18" viewBox="0 0 18 18" fill="none" xmlns="http://www.w3.org/2000/svg">
<g clip-path="url(#clip0_15_258)">
<path d="M3.30451 10.8923L5.85601 8.34075L7.97701 10.4625L10.3448 8.09475L9.00001 6.75H12.75V10.5L11.4053 9.15525L7.97701 12.5835L5.85601 10.4625L3.99976 12.318C4.84232 13.5861 6.13547 14.4866 7.61718 14.8368C9.09889 15.187 10.6583 14.9608 11.9795 14.204C13.3006 13.4473 14.2847 12.2166 14.7322 10.7613C15.1797 9.30604 15.0573 7.73505 14.3897 6.3667C13.7221 4.99835 12.5592 3.93497 11.1368 3.39206C9.71434 2.84915 8.1387 2.8673 6.72915 3.44285C5.31959 4.0184 4.18156 5.10829 3.54566 6.49167C2.90975 7.87504 2.82355 9.44843 3.30451 10.893V10.8923ZM2.15101 12.0607L2.14351 12.0532L2.14651 12.0502C1.71895 11.0903 1.49866 10.0509 1.50001 9C1.50001 4.85775 4.85776 1.5 9.00001 1.5C13.1423 1.5 16.5 4.85775 16.5 9C16.5 13.1423 13.1423 16.5 9.00001 16.5C5.94751 16.5 3.32251 14.6775 2.15101 12.0607Z" fill="#878EA0"/>
</g>
<defs>
<clipPath id="clip0_15_258">
<rect width="18" height="18" fill="white"/>
</clipPath>
</defs>
</svg>
