<svg width="18" height="18" viewBox="0 0 18 18" fill="none" xmlns="http://www.w3.org/2000/svg">
<g clip-path="url(#clip0_15_262)">
<path d="M8.25 1.5L13.7235 3.21C13.8762 3.25766 14.0096 3.35286 14.1043 3.48172C14.199 3.61057 14.2501 3.76633 14.25 3.92625V5.25H15.75C15.9489 5.25 16.1397 5.32902 16.2803 5.46967C16.421 5.61032 16.5 5.80109 16.5 6V12C16.5 12.1989 16.421 12.3897 16.2803 12.5303C16.1397 12.671 15.9489 12.75 15.75 12.75L13.335 12.7507C13.0448 13.1332 12.6922 13.4707 12.285 13.7482L8.25 16.5L4.215 13.749C3.60939 13.3361 3.11381 12.7815 2.77135 12.1334C2.4289 11.4854 2.24992 10.7635 2.25 10.0305V3.92625C2.25009 3.76646 2.30121 3.61087 2.39592 3.48216C2.49063 3.35346 2.62397 3.25837 2.7765 3.21075L8.25 1.5ZM8.25 3.0705L3.75 4.4775V10.0305C3.74989 10.4897 3.85519 10.9427 4.05777 11.3548C4.26036 11.7669 4.55483 12.1269 4.9185 12.4072L5.06025 12.5093L8.25 14.685L11.0865 12.75H7.5C7.30109 12.75 7.11032 12.671 6.96967 12.5303C6.82902 12.3897 6.75 12.1989 6.75 12V6C6.75 5.80109 6.82902 5.61032 6.96967 5.46967C7.11032 5.32902 7.30109 5.25 7.5 5.25H12.75V4.4775L8.25 3.0705ZM8.25 9V11.25H15V9H8.25ZM8.25 7.5H15V6.75H8.25V7.5Z" fill="#878EA0"/>
</g>
<defs>
<clipPath id="clip0_15_262">
<rect width="18" height="18" fill="white"/>
</clipPath>
</defs>
</svg>
