<svg width="40" height="80" viewBox="0 0 40 80" fill="none" xmlns="http://www.w3.org/2000/svg">
<path d="M27.6066 27.0549C27.6066 27.0549 35.4418 34.8013 35.4186 34.8013C38.3526 37.7193 39.9999 41.6701 39.9999 45.7887C39.9999 49.9073 38.3526 53.8581 35.4186 56.7762L11.975 80L5.41602 73.4949L28.8519 50.2787C30.0502 49.0843 30.7227 47.4688 30.7227 45.7849C30.7227 44.101 30.0502 42.4854 28.8519 41.2911L21.0399 33.56L27.6066 27.0549Z" fill="#E0EBED"/>
<path d="M28.0398 0L34.5987 6.50512L11.1551 29.729C9.95731 30.922 9.28494 32.5363 9.28494 34.2189C9.28494 35.9016 9.95731 37.5159 11.1551 38.7089L18.9671 46.4477L12.3772 52.9451L4.58843 45.2064C1.65015 42.289 0 38.3362 0 34.2151C0 30.094 1.65015 26.1412 4.58843 23.2238L28.0398 0Z" fill="#E0EBED"/>
</svg>
