<svg width="20" height="20" viewBox="0 0 20 20" fill="none" xmlns="http://www.w3.org/2000/svg">
<g clip-path="url(#clip0_976_53)">
<path d="M6.46004 4.5325L15.2167 9.64083C15.2795 9.67757 15.3315 9.73009 15.3677 9.79317C15.4038 9.85625 15.4229 9.9277 15.4229 10.0004C15.4229 10.0731 15.4038 10.1446 15.3677 10.2077C15.3315 10.2707 15.2795 10.3233 15.2167 10.36L6.46004 15.4683C6.3966 15.5054 6.3245 15.5249 6.25104 15.5251C6.17759 15.5253 6.10539 15.5061 6.04177 15.4693C5.97815 15.4326 5.92536 15.3797 5.88877 15.316C5.85217 15.2524 5.83306 15.1801 5.83338 15.1067V4.8925C5.83336 4.81918 5.85268 4.74716 5.8894 4.6837C5.92611 4.62025 5.97892 4.5676 6.04249 4.53108C6.10606 4.49456 6.17815 4.47546 6.25146 4.47571C6.32477 4.47596 6.39672 4.49555 6.46004 4.5325Z" fill="#E0EBED"/>
</g>
<defs>
<clipPath id="clip0_976_53">
<rect width="20" height="20" fill="white"/>
</clipPath>
</defs>
</svg>
